PathFileType	4	(X/Y/Z)	/Users/itak/Documents/Research/Walk-IL/dataset/trc/00057_00006.trc
DataRate	CameraRate	NumFrames	NumMarkers	Units	OrigDataRate	OrigDataStartFrame	OrigNumFrames
100.000000	100.000000	4	53	mm	100.000000	368	491
Frame#	Time	RPSI			LPSI			L3			STRN			T10			C7			CLAV			RBAK			LBAK			LSHO			LUPA			LAEL			LAOL			LWTS			LWPS			LFRA			LIFD			LHPS			LHTS			RSHO			RUPA			RAEL			RAOL			RWTS			RWPS			RFRA			RIFD			RHTS			RHPS			RBHD			LFHD			RFHD			LBHD			LHIP			RHIP			RASI			LASI			LKNE			LTHI			LANK			LTIP			LTOE			LMT1			LMT5			LHEE			RKNE			RTHI			RANK			RTIP			RTOE			RMT1			RMT5			RHEE			
		X1	Y1	Z1	X2	Y2	Z2	X3	Y3	Z3	X4	Y4	Z4	X5	Y5	Z5	X6	Y6	Z6	X7	Y7	Z7	X8	Y8	Z8	X9	Y9	Z9	X10	Y10	Z10	X11	Y11	Z11	X12	Y12	Z12	X13	Y13	Z13	X14	Y14	Z14	X15	Y15	Z15	X16	Y16	Z16	X17	Y17	Z17	X18	Y18	Z18	X19	Y19	Z19	X20	Y20	Z20	X21	Y21	Z21	X22	Y22	Z22	X23	Y23	Z23	X24	Y24	Z24	X25	Y25	Z25	X26	Y26	Z26	X27	Y27	Z27	X28	Y28	Z28	X29	Y29	Z29	X30	Y30	Z30	X31	Y31	Z31	X32	Y32	Z32	X33	Y33	Z33	X34	Y34	Z34	X35	Y35	Z35	X36	Y36	Z36	X37	Y37	Z37	X38	Y38	Z38	X39	Y39	Z39	X40	Y40	Z40	X41	Y41	Z41	X42	Y42	Z42	X43	Y43	Z43	X44	Y44	Z44	X45	Y45	Z45	X46	Y46	Z46	X47	Y47	Z47	X48	Y48	Z48	X49	Y49	Z49	X50	Y50	Z50	X51	Y51	Z51	X52	Y52	Z52	X53	Y53	Z53	

369	3.68	-731.588134765625	1039.6767578125	-105.9506607055664	-751.4891357421875	1030.486572265625	-280.1625366210938	-733.6944580078125	1095.414306640625	-198.0836334228516	-459.9033203125	1270.384765625	-215.8249664306641	-733.1138916015625	1230.101928710938	-204.8268432617188	-651.2323608398438	1490.328735351562	-214.7263793945312	-480.1024475097656	1387.284912109375	-217.7212371826172	-722.309814453125	1358.181396484375	-135.3574676513672	-678.81494140625	1453.838256835938	-315.1007995605469	-577.62255859375	1450.060424804688	-389.5353393554688	-602.5585327148438	1325.555297851562	-468.5166015625	-588.6257934570312	1109.797241210938	-492.4754943847656	-650.6061401367188	1095.617553710938	-407.214111328125	-487.3659362792969	876.7815551757812	-422.5967407226562	-545.9136352539062	859.9862670898438	-479.6256713867188	-564.5574340820312	1000.646057128906	-497.5512390136719	-465.4346618652344	692.7573852539062	-394.9304504394531	-509.8180541992188	780.849609375	-472.3135375976562	-460.4018859863281	795.633056640625	-423.4649963378906	-584.9478759765625	1450.559936523438	-42.21835708618164	-599.3448486328125	1384.579833984375	21.95363807678223	-646.22705078125	1129.649658203125	77.43667602539062	-628.1516723632812	1096.86865234375	-15.123703956604	-493.3014221191406	881.7842407226562	60.78092193603516	-564.0354614257812	866.3936767578125	109.7641983032227	-632.9938354492188	1048.047119140625	93.74424743652344	-491.4298400878906	690.737548828125	45.20016479492188	-471.7483520507812	776.5739135742188	63.32592391967773	-530.2666015625	776.3290405273438	114.5029754638672	-596.1492919921875	1672.740844726562	-277.4656372070312	-431.0482482910156	1680.044677734375	-138.3408966064453	-418.7036437988281	1688.687866210938	-263.4412231445312	-600.77685546875	1655.054809570312	-140.3155975341797	-653.3685302734375	962.1025390625	-374.3472595214844	-669.45458984375	962.2891845703125	-30.84076499938965	-545.3876342773438	969.6575927734375	-57.75308609008789	-541.1007690429688	966.1137084960938	-324.4114990234375	-514.0466918945312	510.8082275390625	-310.1748352050781	-567.7150268554688	640.9985961914062	-355.2004089355469	-576.620849609375	45.22254943847656	-316.2755126953125	-545.9547729492188	262.8327331542969	-325.36083984375	-373.46484375	44.83111572265625	-301.6067810058594	-421.8388671875	44.4849967956543	-250.10205078125	-471.6269836425781	38.94260025024414	-350.8087158203125	-632.6570434570312	46.487060546875	-241.5233459472656	-642.8789672851562	512.3389282226562	-41.74517822265625	-606.8558959960938	782.5822143554688	-25.20696067810059	-952.6295776367188	121.397819519043	-27.53609275817871	-714.8440551757812	405.42626953125	-28.40740013122559	-772.1992797851562	42.38110733032227	-79.12872314453125	-823.043701171875	60.45413208007812	-113.77880859375	-843.1243286132812	65.43899536132812	-18.29788017272949	-992.5873413085938	151.1233520507812	-81.39136505126953	
370	3.69	-737.9705200195312	1038.502197265625	-103.9001312255859	-757.8465576171875	1029.865356445312	-278.2254943847656	-740.1851806640625	1094.32275390625	-195.7531433105469	-466.3038330078125	1269.325073242188	-213.9795989990234	-739.3928833007812	1228.96240234375	-202.2942962646484	-657.7310791015625	1489.247680664062	-212.6569366455078	-486.5183715820312	1386.224609375	-215.9685211181641	-728.5513916015625	1357.1162109375	-132.9503784179688	-685.5187377929688	1452.62890625	-312.9111328125	-584.5230102539062	1448.827758789062	-387.5946655273438	-609.6356811523438	1324.342163085938	-466.4281311035156	-595.5908203125	1108.658203125	-490.7586975097656	-657.4243774414062	1094.358764648438	-405.3824768066406	-493.6852111816406	875.9603271484375	-420.9893493652344	-552.3140869140625	858.9321899414062	-477.8524475097656	-571.3944091796875	999.5429077148438	-495.86279296875	-471.1678161621094	692.0578002929688	-393.1600341796875	-515.9796142578125	779.9053955078125	-470.5265808105469	-466.4851684570312	794.8804931640625	-421.9302368164062	-591.0548706054688	1449.677734375	-40.29478073120117	-605.1016845703125	1383.6923828125	23.99081230163574	-651.1158447265625	1128.6240234375	79.83936309814453	-633.16796875	1095.849609375	-12.73432350158691	-496.8224487304688	881.5812377929688	62.35495376586914	-567.4591064453125	865.7022705078125	111.6664962768555	-637.48876953125	1047.018432617188	96.0989990234375	-494.0460510253906	690.52099609375	46.7531852722168	-474.7350158691406	776.5027465820312	64.92446136474609	-533.1484985351562	775.8505859375	116.2186126708984	-602.7702026367188	1671.6884765625	-275.7235107421875	-437.5564880371094	1679.08447265625	-136.830322265625	-425.3000183105469	1687.68505859375	-261.9379577636719	-607.2191162109375	1654.027099609375	-138.5557861328125	-659.4657592773438	961.9035034179688	-372.5500793457031	-676.1664428710938	960.7482299804688	-28.84749221801758	-551.8233642578125	968.1029663085938	-55.71720504760742	-547.2655029296875	965.723876953125	-322.3130798339844	-517.90283203125	511.2277221679688	-309.0265502929688	-572.1033325195312	641.1580810546875	-354.0963439941406	-576.5790405273438	45.24518966674805	-316.2550354003906	-547.5941162109375	263.10693359375	-324.9312133789062	-373.4078063964844	44.89463806152344	-301.7586669921875	-421.8363647460938	44.48419952392578	-250.1452178955078	-471.60986328125	38.95286178588867	-350.8027038574219	-632.6282348632812	46.47153854370117	-241.5482482910156	-655.0972290039062	511.2865600585938	-40.832275390625	-615.3113403320312	781.0382690429688	-23.52753257751465	-958.6475219726562	115.3551406860352	-28.56971168518066	-726.3643188476562	404.0477905273438	-27.84671783447266	-775.3411254882812	42.81693649291992	-79.04230499267578	-826.5538940429688	58.99050140380859	-114.0861511230469	-847.6376342773438	62.82421112060547	-18.43151092529297	-999.1669921875	144.2722930908203	-82.60887145996094	
371	3.7	-744.5663452148438	1037.2734375	-101.7824249267578	-764.279296875	1029.194580078125	-276.2484436035156	-746.7469482421875	1093.214599609375	-193.400146484375	-472.7659301757812	1268.179321289062	-212.0196838378906	-745.7505493164062	1227.805297851562	-199.7401885986328	-664.2392578125	1488.143310546875	-210.5438537597656	-492.9759521484375	1385.0849609375	-214.1192474365234	-734.8465576171875	1356.049926757812	-130.5029602050781	-692.2172241210938	1451.376098632812	-310.688232421875	-591.3900756835938	1447.500244140625	-385.5876159667969	-616.6798706054688	1323.021362304688	-464.2532958984375	-602.5576171875	1107.423950195312	-488.9836120605469	-664.253662109375	1093	-403.5109252929688	-500.0207824707031	875.04541015625	-419.3032836914062	-558.7490844726562	857.787841796875	-476.0149841308594	-578.2239379882812	998.3408813476562	-494.1113586425781	-476.8843688964844	691.28271484375	-391.3224487304688	-522.1137084960938	778.864990234375	-468.6644287109375	-472.6327209472656	794.0166015625	-420.2877807617188	-597.1901245117188	1448.74072265625	-38.29856872558594	-610.9204711914062	1382.744262695312	26.09275245666504	-656.0741577148438	1127.52294921875	82.33255004882812	-638.28271484375	1094.759399414062	-10.26521301269531	-500.3738098144531	881.3509521484375	63.95272445678711	-570.9388427734375	864.9506225585938	113.5964431762695	-642.0523071289062	1045.916381835938	98.52295684814453	-496.65380859375	690.2832641601562	48.28918838500977	-477.7542114257812	776.4108276367188	66.5263671875	-536.0472412109375	775.3187255859375	117.9237823486328	-609.4052124023438	1670.569091796875	-273.9138488769531	-444.0516662597656	1678.079223632812	-135.2683868408203	-431.910888671875	1686.631469726562	-260.3843078613281	-613.6586303710938	1652.951416015625	-136.7378692626953	-665.6415405273438	961.6600341796875	-370.6761779785156	-683.0354614257812	959.1434936523438	-26.80662727355957	-558.4515991210938	966.5127563476562	-53.58682250976562	-553.5049438476562	965.29052734375	-320.1116027832031	-521.8908081054688	511.59912109375	-307.8832397460938	-576.61181640625	641.2772216796875	-352.96142578125	-576.5384521484375	45.26370620727539	-316.2429504394531	-549.3179931640625	263.3706665039062	-324.5122680664062	-373.3546142578125	44.93595123291016	-301.9071960449219	-421.8276977539062	44.46189117431641	-250.208740234375	-471.5917663574219	38.94513320922852	-350.8141174316406	-632.5936889648438	46.45924377441406	-241.5751342773438	-666.9325561523438	510.2492370605469	-40.00947189331055	-623.8194580078125	779.4725952148438	-21.70430183410645	-963.8867797851562	109.3383560180664	-29.61880683898926	-737.3674926757812	402.6235961914062	-27.37964248657227	-777.3540649414062	43.13570022583008	-78.92308044433594	-829.1683959960938	57.77748107910156	-114.3072662353516	-851.1784057617188	60.71864700317383	-18.47631645202637	-1005.1103515625	137.2638854980469	-83.87979888916016	
372	3.71	-751.3773803710938	1036.022705078125	-99.61370086669922	-770.7952270507812	1028.481689453125	-274.2442932128906	-753.3964233398438	1092.1142578125	-191.0415649414062	-479.2959899902344	1266.968383789062	-209.9471893310547	-752.2059326171875	1226.658935546875	-197.1751708984375	-670.759033203125	1487.033325195312	-208.3927917480469	-499.4756774902344	1383.885131835938	-212.1774749755859	-741.1998901367188	1355.005981445312	-128.0234527587891	-698.9104614257812	1450.103271484375	-308.4377746582031	-598.2216186523438	1446.102416992188	-383.515625	-623.6876220703125	1321.616943359375	-461.9947509765625	-609.5289306640625	1106.1171875	-487.13720703125	-671.0866088867188	1091.566528320312	-401.5810852050781	-506.3739013671875	874.0545043945312	-417.5447692871094	-565.2360229492188	856.5738525390625	-474.1146240234375	-585.0496215820312	997.0638427734375	-492.2902221679688	-482.6031799316406	690.443115234375	-389.4392700195312	-528.2443237304688	777.7488403320312	-466.7369384765625	-478.8515625	793.0558471679688	-418.5549011230469	-603.357177734375	1447.769409179688	-36.23445129394531	-616.8021850585938	1381.7548828125	28.25618171691895	-661.0883178710938	1126.36669921875	84.91324615478516	-643.51904296875	1093.619384765625	-7.729677200317383	-503.9838562011719	881.0926513671875	65.58079528808594	-574.4868774414062	864.1569213867188	115.5556869506836	-646.6720581054688	1044.762817382812	101.0150833129883	-499.2935485839844	690.030517578125	49.81001281738281	-480.8401489257812	776.29833984375	68.11763000488281	-538.9807739257812	774.7415161132812	119.6135330200195	-616.04638671875	1669.403076171875	-272.0434265136719	-450.5256652832031	1677.038818359375	-133.654541015625	-438.5318298339844	1685.54052734375	-258.7807006835938	-620.09521484375	1651.846801757812	-134.8690490722656	-671.8997802734375	961.3736572265625	-368.7330932617188	-690.0708618164062	957.517822265625	-24.73088645935059	-565.2992553710938	964.9241943359375	-51.35351943969727	-559.8370971679688	964.820068359375	-317.7935180664062	-526.0145874023438	511.9219970703125	-306.7432250976562	-581.256591796875	641.3460693359375	-351.7888488769531	-576.500244140625	45.27954483032227	-316.2386779785156	-551.1306762695312	263.6300964355469	-324.0947265625	-373.3118896484375	44.96142578125	-302.0360107421875	-421.8154907226562	44.42126846313477	-250.2842712402344	-471.5710754394531	38.92427825927734	-350.8356628417969	-632.5526123046875	46.44694137573242	-241.60302734375	-678.2947998046875	509.2452392578125	-39.28450012207031	-632.351806640625	777.9146728515625	-19.77598571777344	-968.4482421875	103.5003356933594	-30.66956901550293	-747.7714233398438	401.1708679199219	-27.01245498657227	-778.5468139648438	43.32391738891602	-78.79970550537109	-831.1239624023438	56.80398178100586	-114.4356231689453	-853.9690551757812	59.0962028503418	-18.46118354797363	-1010.467224121094	130.2987060546875	-85.18511962890625	
